<?xml version="1.0"?>
<svg version="1.1" xmlns="http://www.w3.org/2000/svg" width="25%" height="25%"
	 viewBox="0 0 285 55 " enable-background="new 0 0 601 89" xml:space="preserve">><path fill="#1689db" d="M16.17,46.54l0-1.56l2.21-0.52l0-14.04l-2.21-0.52l0-1.43l7.15-0.13l0,1.56l-2.21,0.52l0,14.04l2.21,0.52l0,1.56l-7.15,0z M32.5136,36.01l5.98,0l0,2.08l-5.98,0l0,6.37l5.98,0l0.52-2.6l1.69,0l0,4.68l-13.13,0l0-1.56l2.21-0.52l0-14.04l-2.21-0.52l0-1.43l4.94-0.13l7.93,0l0,4.42l-1.69,0l-0.65-2.34l-5.59,0l0,5.59z M50.2872,36.01l5.98,0l0,2.08l-5.98,0l0,6.37l5.98,0l0.52-2.6l1.69,0l0,4.68l-13.13,0l0-1.56l2.21-0.52l0-14.04l-2.21-0.52l0-1.43l4.94-0.13l7.93,0l0,4.42l-1.69,0l-0.65-2.34l-5.59,0l0,5.59z M68.0608,36.01l5.98,0l0,2.08l-5.98,0l0,6.37l5.98,0l0.52-2.6l1.69,0l0,4.68l-13.13,0l0-1.56l2.21-0.52l0-14.04l-2.21-0.52l0-1.43l4.94-0.13l7.93,0l0,4.42l-1.69,0l-0.65-2.34l-5.59,0l0,5.59z"/><path fill="#" d=""/></svg>
